<svg xmlns="http://www.w3.org/2000/svg" viewBox="0 0 400 400" fill-rule="evenodd" stroke-linejoin="round" stroke-miterlimit="2" xmlns:v="https://vecta.io/nano"><path d="M252.5 3.603c176.965 43.237 200.541 298.594 35 379.101-43.824 21.313-165.11 23.79-156.656 3.2.911-2.219 42.156-39.754 91.656-83.412 99.357-87.63 97.315-85.516 97.423-100.885.091-12.881 8.283-4.52-101.753-103.854-48.586-43.86-87.572-82.048-86.634-84.862C135.06 2.32 220.423-4.234 252.5 3.603M100.505 76.241c43.504 40.792 116.987 107.625 129.258 117.562l11.075 8.968-31.669 27.294-37.102 32.364c-8.597 8.025-68.038 60.531-84.567 74.7-19.533 16.744-21.975 16.399-41.404-5.847-60.029-68.734-63.063-179.7-6.943-253.952 24.327-32.188 28.113-32.255 61.352-1.089" fill="#111827"/></svg>