<?xml version="1.0" standalone="no"?>
<!DOCTYPE svg PUBLIC "-//W3C//DTD SVG 20010904//EN"
 "http://www.w3.org/TR/2001/REC-SVG-20010904/DTD/svg10.dtd">
<svg version="1.0" xmlns="http://www.w3.org/2000/svg"
 width="512.000000pt" height="512.000000pt" viewBox="0 0 512.000000 512.000000"
 preserveAspectRatio="xMidYMid meet">
<metadata>
Created by potrace 1.14, written by Peter Selinger 2001-2017
</metadata>
<g transform="translate(0.000000,512.000000) scale(0.100000,-0.100000)"
fill="#000000" stroke="none">
<path d="M1278 5038 c-51 -46 -99 -88 -105 -95 -14 -13 -139 -502 -147 -578
-15 -128 -18 -152 -22 -179 -3 -16 5 -72 17 -124 21 -92 21 -96 3 -109 -10 -7
-24 -13 -31 -13 -27 0 -11 -19 38 -48 l51 -29 -66 -74 c-36 -41 -66 -77 -66
-80 0 -3 56 -45 125 -93 69 -49 125 -90 123 -91 -4 -4 -89 -13 -193 -21 -49
-4 -96 -10 -104 -14 -9 -5 12 -20 60 -45 70 -35 181 -95 187 -100 1 -1 -24 -3
-55 -4 -32 -1 -83 -4 -113 -6 -30 -2 -77 -4 -103 -4 -27 -1 -46 -5 -43 -9 3
-5 43 -32 88 -60 46 -28 90 -56 98 -61 17 -12 30 2 -132 -140 -60 -52 -106
-96 -105 -98 2 -2 48 10 103 26 l99 30 -44 -40 c-24 -22 -83 -74 -132 -116
-49 -41 -89 -79 -89 -83 0 -4 53 -8 117 -9 64 -1 118 -3 120 -4 1 -2 -60 -34
-137 -72 -100 -50 -134 -72 -122 -77 9 -4 77 -21 151 -39 l133 -32 -38 -35
c-159 -144 -284 -267 -276 -270 6 -2 57 4 115 12 136 21 130 21 123 -11 -4
-16 -8 -39 -11 -53 -3 -14 -21 -101 -40 -195 -87 -418 -102 -495 -96 -495 4 0
11 4 17 9 5 4 77 43 159 86 83 43 156 83 164 89 20 15 16 9 -112 -177 -60 -87
-108 -160 -105 -162 2 -2 55 -9 118 -15 63 -7 115 -13 116 -13 1 -1 -12 -58
-27 -127 -16 -69 -29 -129 -29 -134 0 -4 17 -5 38 -1 20 4 48 9 62 11 14 2 35
6 48 9 12 3 22 2 22 -2 0 -5 -20 -60 -44 -123 -24 -63 -46 -125 -50 -137 -7
-21 -7 -21 160 -20 l167 2 59 -95 c32 -52 68 -114 80 -137 12 -24 24 -43 28
-43 3 0 21 29 39 65 19 36 37 65 40 65 4 0 45 -57 91 -128 46 -70 96 -144 111
-164 l27 -38 52 76 53 77 29 -34 c17 -19 86 -94 155 -167 100 -105 128 -130
139 -121 8 6 14 15 14 20 0 11 54 98 61 99 3 0 30 -60 60 -134 30 -74 57 -132
60 -130 4 2 30 62 60 134 29 71 55 130 58 130 4 0 24 -30 45 -67 l39 -67 81
85 c45 46 115 122 158 167 l76 83 52 -75 52 -76 37 53 c20 28 70 103 111 164
41 62 77 113 80 113 3 0 21 -29 40 -65 19 -36 37 -65 40 -64 3 0 41 62 85 137
l81 137 167 -2 c92 -1 167 0 167 2 0 2 -23 65 -51 140 -28 75 -50 137 -48 139
2 2 40 -3 83 -11 43 -7 81 -12 83 -10 2 2 -9 63 -25 136 l-29 131 26 1 c14 0
33 2 41 3 8 2 48 6 89 10 41 3 76 8 79 10 2 3 -45 75 -105 162 -59 87 -112
164 -116 171 -4 7 21 -3 55 -21 243 -130 292 -156 293 -153 1 1 -33 173 -76
381 -43 209 -77 382 -74 384 2 2 56 -3 121 -12 64 -10 118 -15 120 -13 4 4
-178 179 -281 270 l-39 35 140 32 c76 18 143 36 148 40 4 5 -53 39 -127 76
-75 38 -135 69 -134 70 1 2 55 4 120 6 64 2 117 6 117 9 0 3 -54 52 -120 108
-65 57 -124 109 -130 116 -6 7 29 1 86 -16 54 -16 99 -28 101 -26 1 2 -45 46
-105 98 -146 128 -146 128 -141 133 2 2 48 32 102 66 54 34 97 64 95 65 -4 4
-164 14 -241 14 -39 1 -66 5 -62 10 3 5 51 33 108 62 158 81 163 85 95 87 -24
1 -63 4 -88 7 -25 2 -74 7 -110 11 -36 3 -66 7 -68 9 -1 1 50 40 115 85 65 45
122 86 127 91 9 8 -14 39 -86 117 -22 24 -39 44 -37 46 2 1 28 17 58 36 l54
34 -33 11 c-19 6 -35 16 -37 22 -2 5 6 49 17 98 18 75 19 99 11 164 -6 42 -13
101 -16 131 -9 83 -134 573 -149 585 -8 6 -51 44 -96 85 -45 41 -89 79 -96 83
-8 4 -35 -1 -64 -14 -42 -18 -58 -33 -97 -93 -26 -39 -54 -78 -63 -87 -134
-141 -390 -414 -455 -485 l-46 -51 -67 19 c-37 10 -83 21 -102 24 l-35 5 -55
-95 c-30 -53 -57 -96 -60 -96 -3 0 -21 47 -40 105 -19 59 -37 100 -41 93 -4
-7 -19 -57 -34 -110 -15 -54 -31 -98 -35 -98 -3 0 -19 44 -34 98 -16 53 -31
103 -35 110 -5 8 -21 -29 -42 -92 -18 -58 -36 -106 -39 -106 -3 0 -30 43 -60
95 -41 70 -60 95 -75 95 -11 0 -56 -11 -100 -24 l-80 -25 -34 37 c-54 58 -309
329 -387 412 -89 93 -111 121 -155 189 -27 43 -45 59 -87 78 -29 12 -55 23
-57 23 -3 0 -46 -37 -97 -82z"/>
</g>
</svg>
