<svg xmlns="http://www.w3.org/2000/svg" width="994" height="300" xmlns:v="https://vecta.io/nano"><path d="M0 0c26.5 0-79.5-20-53-20h0V0H0z" fill="null"/><g fill="rgba(82, 179, 221, 1)"><path d="M66.333-2c144 0 144 77 288 77h0V-5h-288v3z"/><path d="M353.333 75c136.5 0 136.5-10 273-10h0V-5h-273v80z"/><path d="M624.333 65c185.5 0 185.5 84 371 84h0V-5h-371v70zm379 86c219.5 0 219.5-54 439-54h0V-3h-439v154zM1527.5 97c157 0 157 73 314 73h0V-3h-314V97z"/><path d="M1841 169.833c84 0 84-41 168-41h0v-132h-168v173z"/></g></svg>