<svg width="994" height="300" xmlns="http://www.w3.org/2000/svg">
 <g>
  <title>Layer 1</title>
  <path id="svg_1" stroke-width="0" d="m0,0c26.5,0 -79.5,-20 -53,-20l0,0l0,20l53,0z" fill="null"/>
  <path stroke="null" id="svg_4" stroke-width="0" d="m66.33332,-2c144.00001,0 144.00001,77 288.00001,77l0,0l0,-80l-288.00001,0l0,3z" fill="rgba(82, 179, 221, 1)"/>
  <path id="svg_5" stroke-width="0" d="m353.33333,75c136.5,0 136.5,-10 273,-10l0,0l0,-70l-273,0l0,80z" fill="rgba(82, 179, 221, 1)"/>
  <path id="svg_6" stroke-width="0" d="m624.33333,65c185.5,0 185.5,84 371,84l0,0l0,-154l-371,0l0,70z" fill="rgba(82, 179, 221, 1)" stroke="null"/>
  <path id="svg_7" stroke-width="0" d="m1003.33333,151c219.5,0 219.5,-54 439,-54l0,0l0,-100l-439,0l0,154z" fill="rgba(82, 179, 221, 1)"/>
  <path id="svg_8" stroke-width="0" d="m1527.5,97c157,0 157,73 314,73l0,0l0,-173l-314,0l0,100z" fill="rgba(82, 179, 221, 1)"/>
  <path stroke="null" id="svg_9" stroke-width="0" d="m1840.99997,169.83334c84.00011,0 84.00011,-41 168.00023,-41l0,0l0,-132l-168.00023,0l0,173z" fill="rgba(82, 179, 221, 1)"/>
 </g>

</svg>